<svg width="84" height="84" viewBox="0 0 84 84" fill="none" xmlns="http://www.w3.org/2000/svg">
<path d="M80.9235 66.0765L54.0435 39.193L49.105 44.086L31.57 26.551V11.977L10.9515 0.0875L0.153999 10.8815L12.047 31.5H26.621L44.1315 49.0105L39.123 53.97L66.073 80.9235C68.0575 82.9045 70.693 84 73.5 84C76.307 84 78.9425 82.908 80.9235 80.9235C85.0185 76.8285 85.0185 70.1715 80.9235 66.0765ZM29.2355 53.984L34.2195 49L27.188 41.9685L3.0765 66.0765C-1.0185 70.1715 -1.0185 76.8285 3.0765 80.9235C5.061 82.9045 7.6965 84 10.5035 84C13.3105 84 15.946 82.908 17.927 80.9235L37.0545 61.796L29.239 53.9805L29.2355 53.984ZM80.9165 14.203C82.8695 17.9725 83.86 22.0255 83.86 26.25C83.86 35.1715 79.3765 43.0605 72.5515 47.803L54.068 29.3195L49.126 34.209L38.5665 23.6495V8.2425C43.3545 3.1815 50.106 0 57.6065 0C61.74 0 65.7195 0.952 69.44 2.8385L70.5565 3.4055L58.0475 16.0545C55.314 18.788 55.314 23.219 58.0475 25.9525C60.781 28.686 65.212 28.686 67.9455 25.9525L80.451 13.3105L80.913 14.2065L80.9165 14.203Z" fill="#98A6ED"/>
</svg>
