<svg width="163" height="163" viewBox="0 0 163 163" fill="none" xmlns="http://www.w3.org/2000/svg">
<path d="M29.2819 68.5513C27.4262 82.772 26.3205 97.0808 25.9693 111.418C45.3912 119.54 63.9872 129.514 81.5 141.203C99.0149 129.513 117.613 119.539 137.037 111.418C136.686 97.0808 135.58 82.7721 133.725 68.5513M133.725 68.5513C139.628 66.5657 145.612 64.7286 151.657 63.0536C129.64 47.6025 106.138 34.3895 81.5 23.6111C56.8616 34.3918 33.3595 47.607 11.3428 63.0604C17.3693 64.7261 23.349 66.5571 29.2751 68.5513C47.279 74.6109 64.7477 82.1608 81.5 91.1227C98.2499 82.1607 115.723 74.6108 133.725 68.5513ZM46.0807 101.328C47.4227 101.328 48.7097 100.794 49.6586 99.8442C50.6075 98.8942 51.1406 97.6058 51.1406 96.2624C51.1406 94.919 50.6075 93.6306 49.6586 92.6806C48.7097 91.7307 47.4227 91.197 46.0807 91.197C44.7388 91.197 43.4517 91.7307 42.5028 92.6806C41.5539 93.6306 41.0208 94.919 41.0208 96.2624C41.0208 97.6058 41.5539 98.8942 42.5028 99.8442C43.4517 100.794 44.7388 101.328 46.0807 101.328ZM46.0807 101.328V76.5073C57.5278 69.3843 69.3515 62.8866 81.5 57.0427M34.2271 135.05C37.9914 131.291 40.9765 126.824 43.0108 121.906C45.0451 116.988 46.0884 111.716 46.0807 106.393V96.2624" stroke="black" stroke-width="4" stroke-linecap="round" stroke-linejoin="round"/>
</svg>
